<?xml version="1.0" encoding="utf-8"?>
<!-- Generator: Adobe Illustrator 27.5.0, SVG Export Plug-In . SVG Version: 6.00 Build 0)  -->
<svg version="1.1" id="Layer_1" xmlns="http://www.w3.org/2000/svg" xmlns:xlink="http://www.w3.org/1999/xlink" x="0px" y="0px"
	 viewBox="0 0 75.4 34.3" style="enable-background:new 0 0 75.4 34.3;" xml:space="preserve">
<style type="text/css">
	.st0{fill:#FEB272;}
	.st1{fill:url(#SVGID_1_);}
	.st2{fill:url(#SVGID_00000124138910945274799440000015185210331498846383_);}
	.st3{fill:url(#SVGID_00000018207298159521026020000004852201431961130909_);}
	.st4{fill:url(#SVGID_00000027601547073251564160000001953460059869440424_);}
	.st5{fill:url(#SVGID_00000098182957154366767500000000801351208964347311_);}
	.st6{fill:url(#SVGID_00000132796484317241809070000017916872920670421412_);}
</style>
<g>
	<path class="st0" d="M969.4,941.2c0.6,0.3,1.1,0.9,1.3,1.8c0.3,1.2,0.7,2.4,1,3.5c-0.5,0.1-1,0.3-1.5,0.4c-0.3-1.1-0.7-2.2-1-3.3
		c-0.2-0.5-0.4-0.9-0.8-1.1c-0.3-0.2-0.8-0.2-1.3-0.1c-0.5,0.2-0.9,0.5-1.1,0.9c-0.2,0.4-0.2,0.9,0,1.5c0.3,1,0.7,2.1,1,3.1
		c-0.5,0.2-1,0.3-1.5,0.5c-0.4-1.1-0.8-2.2-1.2-3.3c-0.2-0.5-0.5-0.9-0.8-1.1c-0.4-0.2-0.8-0.2-1.3,0s-0.9,0.5-1.1,0.9
		c-0.2,0.4-0.2,0.9,0.1,1.5c0.4,1,0.8,2,1.2,3c-0.5,0.2-1,0.4-1.5,0.6c-0.8-2-1.6-3.9-2.5-5.9c0.5-0.2,1-0.4,1.5-0.6
		c0.1,0.3,0.2,0.5,0.3,0.8c0.1-0.4,0.4-0.7,0.7-1s0.7-0.5,1.2-0.7s1-0.3,1.5-0.2c0.5,0,0.9,0.2,1.2,0.4c0.2-0.4,0.5-0.8,0.8-1.1
		c0.4-0.3,0.9-0.6,1.4-0.7C968,940.9,968.8,940.9,969.4,941.2z"/>
	<path class="st0" d="M979.4,942c-1.8,0.3-3.6,0.7-5.3,1.1c0.2,0.4,0.5,0.7,1,0.9s1,0.2,1.5,0.1c0.7-0.2,1.3-0.5,1.7-1.1
		c0.3,0.2,0.7,0.5,1,0.7c-0.2,0.4-0.6,0.7-1,1s-0.9,0.5-1.5,0.6c-0.7,0.2-1.4,0.2-2,0c-0.6-0.1-1.1-0.4-1.6-0.8
		c-0.4-0.4-0.7-0.9-0.9-1.5s-0.1-1.2,0-1.8c0.2-0.6,0.5-1,1-1.5c0.5-0.4,1.1-0.7,1.8-0.8c0.7-0.2,1.3-0.1,1.9,0
		c0.6,0.2,1.1,0.5,1.5,0.9s0.6,1,0.8,1.6C979.4,941.7,979.4,941.8,979.4,942z M974.3,940.9c-0.3,0.4-0.4,0.8-0.4,1.3
		c1.3-0.3,2.6-0.6,3.9-0.9c-0.2-0.4-0.4-0.8-0.9-1c-0.4-0.2-0.9-0.3-1.4-0.1C975,940.3,974.5,940.6,974.3,940.9z"/>
	<path class="st0" d="M987.3,937.2c0.2,2.1,0.4,4.3,0.6,6.4c-0.5,0-1,0.1-1.5,0.2c0-0.3-0.1-0.5-0.1-0.8c-0.2,0.3-0.5,0.6-0.9,0.8
		s-0.7,0.3-1.2,0.4c-0.9,0.1-1.6,0-2.2-0.4c-0.6-0.4-1-1-1.1-2c-0.2-1.2-0.4-2.4-0.6-3.6c0.6-0.1,1.1-0.2,1.7-0.3
		c0.2,1.1,0.3,2.3,0.5,3.4c0.1,0.6,0.3,1,0.6,1.2s0.7,0.3,1.2,0.3c0.6-0.1,1-0.3,1.3-0.7s0.4-0.9,0.3-1.5c-0.1-1.1-0.2-2.1-0.4-3.2
		C986.2,937.3,986.7,937.3,987.3,937.2z"/>
	<path class="st0" d="M998.3,937.4c0.5,0.5,0.8,1.1,0.8,2.1c0,1.3-0.1,2.5-0.1,3.8c-0.5,0-1,0-1.5,0c0-0.3,0-0.5,0-0.8
		c-0.2,0.3-0.5,0.5-0.8,0.6c-0.4,0.1-0.8,0.2-1.3,0.2s-0.9-0.1-1.3-0.2c-0.4-0.2-0.7-0.4-0.9-0.7s-0.3-0.6-0.4-1
		c0-0.6,0.2-1,0.6-1.4c0.5-0.4,1.2-0.6,2.2-0.6c0.6,0,1.2,0,1.8,0v-0.1c0-0.4-0.1-0.8-0.4-1c-0.3-0.2-0.7-0.4-1.3-0.4
		c-0.4,0-0.8,0.1-1.2,0.2c-0.4,0.1-0.7,0.3-1,0.5c-0.2-0.4-0.5-0.7-0.7-1.1c0.4-0.3,0.8-0.5,1.3-0.6s1.1-0.2,1.7-0.2
		C997,936.7,997.8,936.9,998.3,937.4z M996.8,941.9c0.3-0.2,0.5-0.4,0.7-0.7c0-0.2,0-0.5,0-0.7c-0.6,0-1.1,0-1.7,0
		c-0.9,0-1.4,0.3-1.4,0.9c0,0.3,0.1,0.5,0.4,0.6c0.2,0.2,0.6,0.2,1,0.2C996.1,942.2,996.5,942.1,996.8,941.9z"/>
	<path class="st0" d="M1012.4,938.6c0.4,0.5,0.6,1.3,0.4,2.2c-0.2,1.2-0.4,2.4-0.6,3.6c-0.5-0.1-1-0.2-1.6-0.2
		c0.2-1.1,0.3-2.3,0.5-3.4c0.1-0.6,0-1-0.2-1.3s-0.6-0.5-1.1-0.6c-0.6-0.1-1,0-1.4,0.3s-0.6,0.7-0.7,1.4c-0.1,1.1-0.2,2.2-0.4,3.2
		c-0.5-0.1-1-0.1-1.6-0.2c0.1-1.2,0.2-2.3,0.3-3.5c0.1-0.6,0-1-0.3-1.3c-0.2-0.3-0.6-0.5-1.1-0.5c-0.6,0-1,0.1-1.4,0.4
		c-0.4,0.3-0.5,0.8-0.6,1.4c-0.1,1.1-0.1,2.2-0.2,3.2c-0.5,0-1-0.1-1.6-0.1c0.1-2.1,0.2-4.3,0.3-6.4c0.5,0,1.1,0.1,1.6,0.1
		c0,0.3,0,0.5-0.1,0.8c0.3-0.3,0.6-0.5,1-0.6s0.9-0.2,1.4-0.1c0.5,0,1,0.2,1.4,0.4s0.7,0.5,0.9,0.9c0.3-0.3,0.7-0.5,1.2-0.7
		c0.5-0.1,1-0.2,1.6-0.1C1011.3,937.7,1011.9,938.1,1012.4,938.6z"/>
	<path class="st0" d="M1015.7,937.2c-0.2-0.2-0.2-0.4-0.2-0.7s0.2-0.4,0.4-0.6c0.2-0.1,0.5-0.2,0.8-0.1c0.3,0.1,0.5,0.2,0.7,0.4
		s0.2,0.4,0.2,0.7c-0.1,0.3-0.2,0.5-0.4,0.6s-0.5,0.2-0.8,0.1C1016.1,937.6,1015.9,937.5,1015.7,937.2z M1015.4,938.5
		c0.6,0.1,1.1,0.2,1.7,0.3c-0.4,2.1-0.9,4.2-1.3,6.3c-0.5-0.1-1-0.2-1.5-0.3C1014.6,942.7,1015,940.6,1015.4,938.5z"/>
	<path class="st0" d="M1026.1,941.2c-0.5,1.7-1.1,3.5-1.6,5.2c-0.7,2.2-2.1,2.9-4.4,2.3c-0.6-0.2-1.2-0.4-1.7-0.7s-0.9-0.6-1.2-1
		c0.3-0.3,0.6-0.6,0.9-0.9c0.2,0.3,0.5,0.6,0.9,0.8s0.8,0.4,1.3,0.5c0.7,0.2,1.3,0.2,1.7,0s0.7-0.6,0.9-1.3c0-0.1,0.1-0.2,0.1-0.3
		c-0.3,0.2-0.7,0.3-1.1,0.3c-0.4,0-0.8,0-1.3-0.1c-0.6-0.2-1.2-0.4-1.6-0.8c-0.4-0.4-0.8-0.8-1-1.4c-0.2-0.5-0.2-1.1-0.1-1.7
		c0.1-0.6,0.4-1.1,0.8-1.5c0.4-0.4,0.9-0.6,1.5-0.8c0.6-0.1,1.2-0.1,1.9,0.1c0.5,0.1,0.9,0.3,1.3,0.6c0.4,0.3,0.7,0.6,0.8,1
		c0.1-0.3,0.2-0.5,0.2-0.8C1025.1,940.9,1025.6,941,1026.1,941.2z M1022.8,944.7c0.5-0.2,0.8-0.6,0.9-1.1c0.2-0.5,0.1-1-0.2-1.4
		s-0.8-0.7-1.4-0.9c-0.6-0.2-1.2-0.1-1.6,0.1c-0.5,0.2-0.8,0.6-0.9,1.1c-0.1,0.5,0,1,0.3,1.4s0.7,0.7,1.3,0.9
		C1021.8,945,1022.3,944.9,1022.8,944.7z"/>
	<path class="st0" d="M1027.5,948c-0.4-0.4-0.7-1-0.9-1.5c-0.1-0.6-0.1-1.2,0.1-1.8s0.5-1.1,1-1.5s1-0.6,1.7-0.7
		c0.6-0.1,1.3,0,2,0.3c0.7,0.3,1.3,0.6,1.7,1.1c0.4,0.5,0.7,1,0.8,1.6c0.1,0.6,0,1.2-0.2,1.8s-0.6,1-1.1,1.4c-0.5,0.3-1,0.5-1.7,0.6
		c-0.6,0.1-1.3,0-1.9-0.3C1028.4,948.8,1027.9,948.5,1027.5,948z M1031.1,947.8c0.5-0.2,0.9-0.6,1.1-1.1c0.2-0.6,0.2-1.1,0-1.6
		c-0.2-0.5-0.7-0.8-1.2-1.1c-0.6-0.2-1.1-0.2-1.6,0s-0.8,0.6-1,1.2c-0.2,0.6-0.2,1.1,0.1,1.6c0.2,0.5,0.6,0.8,1.2,1
		C1030.1,948,1030.6,948,1031.1,947.8z"/>
</g>
<g>
	<g>
		
			<linearGradient id="SVGID_1_" gradientUnits="userSpaceOnUse" x1="977.4025" y1="-923.0905" x2="977.4025" y2="-939.8903" gradientTransform="matrix(1 0 0 -1 0 30.2994)">
			<stop  offset="0" style="stop-color:#FEB272"/>
			<stop  offset="1" style="stop-color:#FD7E14"/>
		</linearGradient>
		<path class="st1" d="M981.7,954.1c1.2,0.5,2,1.2,2.7,2.2s0.9,2.1,0.9,3.4s-0.3,2.4-0.9,3.4c-0.6,1-1.5,1.7-2.7,2.2
			s-2.5,0.8-4.1,0.8h-2.4v2.9c0,0.7-0.5,1.2-1.2,1.2h-3.3c-0.7,0-1.2-0.5-1.2-1.2v-14.4c0-0.7,0.5-1.2,1.2-1.2h6.9
			C979.2,953.3,980.5,953.6,981.7,954.1z M979,961.1c0.4-0.3,0.6-0.8,0.6-1.5s-0.2-1.1-0.6-1.5c-0.4-0.3-1-0.5-1.7-0.5h-2.1v3.9h2.1
			C978,961.6,978.6,961.5,979,961.1z"/>
		
			<linearGradient id="SVGID_00000011720535134297643200000005401225512825651122_" gradientUnits="userSpaceOnUse" x1="996.5025" y1="-923.0905" x2="996.5025" y2="-939.8905" gradientTransform="matrix(1 0 0 -1 0 30.2994)">
			<stop  offset="0" style="stop-color:#FEB272"/>
			<stop  offset="1" style="stop-color:#FD7E14"/>
		</linearGradient>
		<path style="fill:url(#SVGID_00000011720535134297643200000005401225512825651122_);" d="M1003.5,967.1v1.9c0,0.7-0.5,1.2-1.2,1.2
			h-11.6c-0.7,0-1.2-0.5-1.2-1.2v-14.4c0-0.7,0.5-1.2,1.2-1.2h11.3c0.7,0,1.2,0.5,1.2,1.2v1.9c0,0.7-0.5,1.2-1.2,1.2h-6.9v2h5.9
			c0.7,0,1.2,0.5,1.2,1.2v1.7c0,0.7-0.5,1.2-1.2,1.2h-5.9v2.2h7.2C1003,965.9,1003.5,966.4,1003.5,967.1z"/>
		
			<linearGradient id="SVGID_00000145738102063150840010000011600356739293877686_" gradientUnits="userSpaceOnUse" x1="1014.5525" y1="-923.0905" x2="1014.5525" y2="-939.8905" gradientTransform="matrix(1 0 0 -1 0 30.2994)">
			<stop  offset="0" style="stop-color:#FEB272"/>
			<stop  offset="1" style="stop-color:#FD7E14"/>
		</linearGradient>
		<path style="fill:url(#SVGID_00000145738102063150840010000011600356739293877686_);" d="M1011.7,957.7h-3.7
			c-0.7,0-1.2-0.5-1.2-1.2v-2c0-0.7,0.5-1.2,1.2-1.2h13.1c0.7,0,1.2,0.5,1.2,1.2v2c0,0.7-0.5,1.2-1.2,1.2h-3.7v11.2
			c0,0.7-0.5,1.2-1.2,1.2h-3.3c-0.7,0-1.2-0.5-1.2-1.2L1011.7,957.7L1011.7,957.7z"/>
	</g>
</g>
<g>
	<g>
		<path class="st0" d="M10.9,5.4c0.6,0.3,1.1,0.9,1.3,1.8c0.3,1.2,0.7,2.4,1,3.5c-0.5,0.1-1,0.3-1.5,0.4c-0.3-1.1-0.7-2.2-1-3.3
			c-0.2-0.5-0.4-0.9-0.8-1.1C9.6,6.5,9.2,6.5,8.7,6.7C8.1,6.8,7.8,7.1,7.5,7.6C7.3,8,7.3,8.5,7.5,9.1c0.3,1,0.7,2.1,1,3.1
			c-0.5,0.2-1,0.3-1.5,0.5c-0.4-1.1-0.8-2.2-1.2-3.3C5.7,8.9,5.4,8.5,5.1,8.3c-0.4-0.2-0.8-0.2-1.3,0C3.2,8.6,2.9,8.9,2.7,9.3
			c-0.2,0.4-0.2,0.9,0.1,1.5c0.4,1,0.8,2,1.2,3c-0.5,0.2-1,0.4-1.5,0.6c-0.8-2-1.6-3.9-2.5-5.9c0.5-0.2,1-0.4,1.5-0.6
			c0.1,0.3,0.2,0.5,0.3,0.8C2,8.3,2.2,8,2.5,7.7C2.8,7.4,3.2,7.2,3.7,7c0.5-0.2,1-0.3,1.5-0.2c0.5,0,0.9,0.2,1.2,0.4
			c0.2-0.4,0.5-0.8,0.8-1.1c0.4-0.3,0.9-0.6,1.4-0.7C9.5,5.1,10.2,5.1,10.9,5.4z"/>
		<path class="st0" d="M20.9,6.2c-1.8,0.3-3.6,0.7-5.3,1.1c0.2,0.4,0.5,0.7,1,0.9c0.5,0.2,1,0.2,1.5,0.1c0.7-0.2,1.3-0.5,1.7-1.1
			c0.3,0.2,0.7,0.5,1,0.7c-0.2,0.4-0.6,0.7-1,1c-0.4,0.3-0.9,0.5-1.5,0.6c-0.7,0.2-1.4,0.2-2,0c-0.6-0.1-1.1-0.4-1.6-0.8
			c-0.4-0.4-0.7-0.9-0.9-1.5c-0.2-0.6-0.1-1.2,0-1.8c0.2-0.6,0.5-1,1-1.5c0.5-0.4,1.1-0.7,1.8-0.8C17.4,3,18,3,18.6,3.2
			c0.6,0.2,1.1,0.5,1.5,0.9c0.4,0.4,0.6,1,0.8,1.6C20.9,5.8,20.9,6,20.9,6.2z M15.7,5.1c-0.3,0.4-0.4,0.8-0.4,1.3
			c1.3-0.3,2.6-0.6,3.9-0.9c-0.2-0.4-0.4-0.8-0.9-1c-0.4-0.2-0.9-0.3-1.4-0.1C16.4,4.5,16,4.7,15.7,5.1z"/>
		<path class="st0" d="M28.7,1.4c0.2,2.1,0.4,4.3,0.6,6.4c-0.5,0-1,0.1-1.5,0.2c0-0.3-0.1-0.5-0.1-0.8c-0.2,0.3-0.5,0.6-0.9,0.8
			c-0.4,0.2-0.7,0.3-1.2,0.4c-0.9,0.1-1.6,0-2.2-0.4c-0.6-0.4-1-1-1.1-2c-0.2-1.2-0.4-2.4-0.6-3.6c0.6-0.1,1.1-0.2,1.7-0.3
			c0.2,1.1,0.3,2.3,0.5,3.4c0.1,0.6,0.3,1,0.6,1.2c0.3,0.2,0.7,0.3,1.2,0.3c0.6-0.1,1-0.3,1.3-0.7c0.3-0.4,0.4-0.9,0.3-1.5
			c-0.1-1.1-0.2-2.1-0.4-3.2C27.6,1.5,28.2,1.4,28.7,1.4z"/>
		<path class="st0" d="M39.8,1.5c0.5,0.5,0.8,1.1,0.8,2.1c0,1.3-0.1,2.5-0.1,3.8c-0.5,0-1,0-1.5,0c0-0.3,0-0.5,0-0.8
			c-0.2,0.3-0.5,0.5-0.8,0.6c-0.4,0.1-0.8,0.2-1.3,0.2c-0.5,0-0.9-0.1-1.3-0.2c-0.4-0.2-0.7-0.4-0.9-0.7c-0.2-0.3-0.3-0.6-0.4-1
			c0-0.6,0.2-1,0.6-1.4c0.5-0.4,1.2-0.6,2.2-0.6c0.6,0,1.2,0,1.8,0c0,0,0-0.1,0-0.1c0-0.4-0.1-0.8-0.4-1c-0.3-0.2-0.7-0.4-1.3-0.4
			c-0.4,0-0.8,0.1-1.2,0.2c-0.4,0.1-0.7,0.3-1,0.5c-0.2-0.4-0.5-0.7-0.7-1.1c0.4-0.3,0.8-0.5,1.3-0.6c0.5-0.1,1.1-0.2,1.7-0.2
			C38.4,0.8,39.2,1.1,39.8,1.5z M38.3,6.1c0.3-0.2,0.5-0.4,0.7-0.7c0-0.2,0-0.5,0-0.7c-0.6,0-1.1,0-1.7,0c-0.9,0-1.4,0.3-1.4,0.9
			c0,0.3,0.1,0.5,0.4,0.6c0.2,0.2,0.6,0.2,1,0.2C37.6,6.3,38,6.2,38.3,6.1z"/>
		<path class="st0" d="M53.8,2.8c0.4,0.5,0.6,1.3,0.4,2.2c-0.2,1.2-0.4,2.4-0.6,3.6c-0.5-0.1-1-0.2-1.6-0.2c0.2-1.1,0.3-2.3,0.5-3.4
			c0.1-0.6,0-1-0.2-1.3c-0.2-0.3-0.6-0.5-1.1-0.6c-0.6-0.1-1,0-1.4,0.3c-0.4,0.3-0.6,0.7-0.7,1.4c-0.1,1.1-0.2,2.2-0.4,3.2
			c-0.5-0.1-1-0.1-1.6-0.2c0.1-1.2,0.2-2.3,0.3-3.5c0.1-0.6,0-1-0.3-1.3c-0.2-0.3-0.6-0.5-1.1-0.5c-0.6,0-1,0.1-1.4,0.4
			c-0.4,0.3-0.5,0.8-0.6,1.4c-0.1,1.1-0.1,2.2-0.2,3.2c-0.5,0-1-0.1-1.6-0.1c0.1-2.1,0.2-4.3,0.3-6.4c0.5,0,1.1,0.1,1.6,0.1
			c0,0.3,0,0.5-0.1,0.8c0.3-0.3,0.6-0.5,1-0.6c0.4-0.1,0.9-0.2,1.4-0.1c0.5,0,1,0.2,1.4,0.4c0.4,0.2,0.7,0.5,0.9,0.9
			c0.3-0.3,0.7-0.5,1.2-0.7c0.5-0.1,1-0.2,1.6-0.1C52.7,1.9,53.4,2.2,53.8,2.8z"/>
		<path class="st0" d="M57.2,1.4C57,1.2,56.9,1,57,0.7c0-0.3,0.2-0.4,0.4-0.6C57.6,0,57.9,0,58.2,0c0.3,0.1,0.5,0.2,0.7,0.4
			c0.2,0.2,0.2,0.4,0.2,0.7c-0.1,0.3-0.2,0.5-0.4,0.6c-0.2,0.1-0.5,0.2-0.8,0.1C57.6,1.7,57.3,1.6,57.2,1.4z M56.8,2.7
			c0.6,0.1,1.1,0.2,1.7,0.3c-0.4,2.1-0.9,4.2-1.3,6.3c-0.5-0.1-1-0.2-1.5-0.3C56,6.9,56.4,4.8,56.8,2.7z"/>
		<path class="st0" d="M67.6,5.3C67,7.1,66.5,8.8,66,10.5c-0.7,2.2-2.1,2.9-4.4,2.3c-0.6-0.2-1.2-0.4-1.7-0.7
			c-0.5-0.3-0.9-0.6-1.2-1c0.3-0.3,0.6-0.6,0.9-0.9c0.2,0.3,0.5,0.6,0.9,0.8c0.4,0.2,0.8,0.4,1.3,0.5c0.7,0.2,1.3,0.2,1.7,0
			c0.4-0.2,0.7-0.6,0.9-1.3c0-0.1,0.1-0.2,0.1-0.3c-0.3,0.2-0.7,0.3-1.1,0.3c-0.4,0-0.8,0-1.3-0.1c-0.6-0.2-1.2-0.4-1.6-0.8
			c-0.4-0.4-0.8-0.8-1-1.4c-0.2-0.5-0.2-1.1-0.1-1.7c0.1-0.6,0.4-1.1,0.8-1.5c0.4-0.4,0.9-0.6,1.5-0.8C62.3,3.9,63,4,63.6,4.1
			c0.5,0.1,0.9,0.3,1.3,0.6c0.4,0.3,0.7,0.6,0.8,1C65.9,5.4,66,5.1,66,4.9C66.6,5,67.1,5.2,67.6,5.3z M64.2,8.9
			c0.5-0.2,0.8-0.6,0.9-1.1c0.2-0.5,0.1-1-0.2-1.4c-0.3-0.4-0.8-0.7-1.4-0.9c-0.6-0.2-1.2-0.1-1.6,0.1c-0.5,0.2-0.8,0.6-0.9,1.1
			c-0.1,0.5,0,1,0.3,1.4C61.6,8.5,62,8.8,62.6,9C63.2,9.1,63.7,9.1,64.2,8.9z"/>
		<path class="st0" d="M68.9,12.2c-0.4-0.4-0.7-1-0.9-1.5c-0.1-0.6-0.1-1.2,0.1-1.8c0.2-0.6,0.5-1.1,1-1.5c0.5-0.4,1-0.6,1.7-0.7
			c0.6-0.1,1.3,0,2,0.3c0.7,0.3,1.3,0.6,1.7,1.1c0.4,0.5,0.7,1,0.8,1.6c0.1,0.6,0,1.2-0.2,1.8c-0.2,0.6-0.6,1-1.1,1.4
			c-0.5,0.3-1,0.5-1.7,0.6c-0.6,0.1-1.3,0-1.9-0.3C69.9,12.9,69.4,12.6,68.9,12.2z M72.6,12c0.5-0.2,0.9-0.6,1.1-1.1
			c0.2-0.6,0.2-1.1,0-1.6c-0.2-0.5-0.7-0.8-1.2-1.1c-0.6-0.2-1.1-0.2-1.6,0c-0.5,0.2-0.8,0.6-1,1.2c-0.2,0.6-0.2,1.1,0.1,1.6
			c0.2,0.5,0.6,0.8,1.2,1C71.5,12.2,72.1,12.2,72.6,12z"/>
	</g>
	<g>
		<g>
			
				<linearGradient id="SVGID_00000125578571117169789260000001044056129257906066_" gradientUnits="userSpaceOnUse" x1="18.861" y1="17.4881" x2="18.861" y2="34.2879">
				<stop  offset="0" style="stop-color:#FEB272"/>
				<stop  offset="1" style="stop-color:#FD7E14"/>
			</linearGradient>
			<path style="fill:url(#SVGID_00000125578571117169789260000001044056129257906066_);" d="M23.1,18.3c1.2,0.5,2,1.2,2.7,2.2
				s0.9,2.1,0.9,3.4s-0.3,2.4-0.9,3.4c-0.6,1-1.5,1.7-2.7,2.2c-1.2,0.5-2.5,0.8-4.1,0.8h-2.4v2.9c0,0.7-0.5,1.2-1.2,1.2h-3.3
				c-0.7,0-1.2-0.5-1.2-1.2V18.7c0-0.7,0.5-1.2,1.2-1.2h6.9C20.6,17.5,22,17.7,23.1,18.3z M20.4,25.3c0.4-0.3,0.6-0.8,0.6-1.5
				s-0.2-1.1-0.6-1.5c-0.4-0.3-1-0.5-1.7-0.5h-2.1v3.9h2.1C19.5,25.8,20.1,25.6,20.4,25.3z"/>
			
				<linearGradient id="SVGID_00000116234460433165531310000006658675665849662382_" gradientUnits="userSpaceOnUse" x1="37.9652" y1="17.4881" x2="37.9652" y2="34.2879">
				<stop  offset="0" style="stop-color:#FEB272"/>
				<stop  offset="1" style="stop-color:#FD7E14"/>
			</linearGradient>
			<path style="fill:url(#SVGID_00000116234460433165531310000006658675665849662382_);" d="M44.9,31.2v1.9c0,0.7-0.5,1.2-1.2,1.2
				H32.2c-0.7,0-1.2-0.5-1.2-1.2V18.7c0-0.7,0.5-1.2,1.2-1.2h11.3c0.7,0,1.2,0.5,1.2,1.2v1.9c0,0.7-0.5,1.2-1.2,1.2h-6.9v2h5.9
				c0.7,0,1.2,0.5,1.2,1.2v1.7c0,0.7-0.5,1.2-1.2,1.2h-5.9V30h7.2C44.4,30,44.9,30.6,44.9,31.2z"/>
			
				<linearGradient id="SVGID_00000121249941903086783720000009646686661813998220_" gradientUnits="userSpaceOnUse" x1="56.0131" y1="17.4881" x2="56.0131" y2="34.2879">
				<stop  offset="0" style="stop-color:#FEB272"/>
				<stop  offset="1" style="stop-color:#FD7E14"/>
			</linearGradient>
			<path style="fill:url(#SVGID_00000121249941903086783720000009646686661813998220_);" d="M53.2,21.9h-3.7c-0.7,0-1.2-0.5-1.2-1.2
				v-2c0-0.7,0.5-1.2,1.2-1.2h13.1c0.7,0,1.2,0.5,1.2,1.2v2c0,0.7-0.5,1.2-1.2,1.2h-3.7v11.2c0,0.7-0.5,1.2-1.2,1.2h-3.3
				c-0.7,0-1.2-0.5-1.2-1.2V21.9z"/>
		</g>
	</g>
</g>
</svg>
