<?xml version="1.0" encoding="utf-8"?>
<!-- Generator: Adobe Illustrator 27.5.0, SVG Export Plug-In . SVG Version: 6.00 Build 0)  -->
<svg version="1.1" id="Layer_1" xmlns="http://www.w3.org/2000/svg" xmlns:xlink="http://www.w3.org/1999/xlink" x="0px" y="0px"
	 viewBox="0 0 75.4 34.3" style="enable-background:new 0 0 75.4 34.3;" xml:space="preserve">
<style type="text/css">
	.st0{fill:#FFBE5C;}
	.st1{fill:url(#SVGID_1_);}
	.st2{fill:url(#SVGID_00000018227928814797402000000014737826891515968169_);}
	.st3{fill:url(#SVGID_00000108289390594805732480000008767312968305953964_);}
	.st4{fill:#FFFFFF;}
</style>
<g>
	<path class="st0" d="M960.7,944.1c0.6,0.3,1.1,0.9,1.3,1.8c0.3,1.2,0.7,2.4,1,3.5c-0.5,0.1-1,0.3-1.5,0.4c-0.3-1.1-0.7-2.2-1-3.3
		c-0.2-0.5-0.4-0.9-0.8-1.1c-0.3-0.2-0.8-0.2-1.3-0.1c-0.5,0.2-0.9,0.5-1.1,0.9c-0.2,0.4-0.2,0.9,0,1.5c0.3,1,0.7,2.1,1,3.1
		c-0.5,0.2-1,0.3-1.5,0.5c-0.4-1.1-0.8-2.2-1.2-3.3c-0.2-0.5-0.5-0.9-0.8-1.1c-0.4-0.2-0.8-0.2-1.3,0c-0.5,0.2-0.9,0.5-1.1,0.9
		c-0.2,0.4-0.2,0.9,0.1,1.5c0.4,1,0.8,2,1.2,3c-0.5,0.2-1,0.4-1.5,0.6c-0.8-2-1.6-3.9-2.5-5.9c0.5-0.2,1-0.4,1.5-0.6
		c0.1,0.3,0.2,0.5,0.3,0.8c0.1-0.4,0.4-0.7,0.7-1c0.3-0.3,0.7-0.5,1.2-0.7c0.5-0.2,1-0.3,1.5-0.2c0.5,0,0.9,0.2,1.2,0.4
		c0.2-0.4,0.5-0.8,0.8-1.1c0.4-0.3,0.9-0.6,1.4-0.7C959.3,943.8,960.1,943.8,960.7,944.1z"/>
	<path class="st0" d="M970.7,944.9c-1.8,0.3-3.6,0.7-5.3,1.1c0.2,0.4,0.5,0.7,1,0.9c0.5,0.2,1,0.2,1.5,0.1c0.7-0.2,1.3-0.5,1.7-1.1
		c0.3,0.2,0.7,0.5,1,0.7c-0.2,0.4-0.6,0.7-1,1c-0.4,0.3-0.9,0.5-1.5,0.6c-0.7,0.2-1.4,0.2-2,0c-0.6-0.1-1.1-0.4-1.6-0.8
		c-0.4-0.4-0.7-0.9-0.9-1.5c-0.2-0.6-0.1-1.2,0-1.8c0.2-0.6,0.5-1,1-1.5c0.5-0.4,1.1-0.7,1.8-0.8c0.7-0.2,1.3-0.1,1.9,0
		c0.6,0.2,1.1,0.5,1.5,0.9c0.4,0.4,0.6,1,0.8,1.6C970.7,944.6,970.7,944.7,970.7,944.9z M965.6,943.8c-0.3,0.4-0.4,0.8-0.4,1.3
		c1.3-0.3,2.6-0.6,3.9-0.9c-0.2-0.4-0.4-0.8-0.9-1c-0.4-0.2-0.9-0.3-1.4-0.1C966.3,943.2,965.8,943.5,965.6,943.8z"/>
	<path class="st0" d="M978.6,940.1c0.2,2.1,0.4,4.3,0.6,6.4c-0.5,0-1,0.1-1.5,0.2c0-0.3-0.1-0.5-0.1-0.8c-0.2,0.3-0.5,0.6-0.9,0.8
		c-0.4,0.2-0.7,0.3-1.2,0.4c-0.9,0.1-1.6,0-2.2-0.4c-0.6-0.4-1-1-1.1-2c-0.2-1.2-0.4-2.4-0.6-3.6c0.6-0.1,1.1-0.2,1.7-0.3
		c0.2,1.1,0.3,2.3,0.5,3.4c0.1,0.6,0.3,1,0.6,1.2c0.3,0.2,0.7,0.3,1.2,0.3c0.6-0.1,1-0.3,1.3-0.7c0.3-0.4,0.4-0.9,0.3-1.5
		c-0.1-1.1-0.2-2.1-0.4-3.2C977.5,940.2,978,940.2,978.6,940.1z"/>
	<path class="st0" d="M989.6,940.3c0.5,0.5,0.8,1.1,0.8,2.1c0,1.3-0.1,2.5-0.1,3.8c-0.5,0-1,0-1.5,0c0-0.3,0-0.5,0-0.8
		c-0.2,0.3-0.5,0.5-0.8,0.6c-0.4,0.1-0.8,0.2-1.3,0.2c-0.5,0-0.9-0.1-1.3-0.2c-0.4-0.2-0.7-0.4-0.9-0.7c-0.2-0.3-0.3-0.6-0.4-1
		c0-0.6,0.2-1,0.6-1.4c0.5-0.4,1.2-0.6,2.2-0.6c0.6,0,1.2,0,1.8,0c0,0,0-0.1,0-0.1c0-0.4-0.1-0.8-0.4-1c-0.3-0.2-0.7-0.4-1.3-0.4
		c-0.4,0-0.8,0.1-1.2,0.2c-0.4,0.1-0.7,0.3-1,0.5c-0.2-0.4-0.5-0.7-0.7-1.1c0.4-0.3,0.8-0.5,1.3-0.6c0.5-0.1,1.1-0.2,1.7-0.2
		C988.3,939.6,989.1,939.8,989.6,940.3z M988.1,944.8c0.3-0.2,0.5-0.4,0.7-0.7c0-0.2,0-0.5,0-0.7c-0.6,0-1.1,0-1.7,0
		c-0.9,0-1.4,0.3-1.4,0.9c0,0.3,0.1,0.5,0.4,0.6c0.2,0.2,0.6,0.2,1,0.2C987.4,945.1,987.8,945,988.1,944.8z"/>
	<path class="st0" d="M1003.7,941.5c0.4,0.5,0.6,1.3,0.4,2.2c-0.2,1.2-0.4,2.4-0.6,3.6c-0.5-0.1-1-0.2-1.6-0.2
		c0.2-1.1,0.3-2.3,0.5-3.4c0.1-0.6,0-1-0.2-1.3c-0.2-0.3-0.6-0.5-1.1-0.6c-0.6-0.1-1,0-1.4,0.3c-0.4,0.3-0.6,0.7-0.7,1.4
		c-0.1,1.1-0.2,2.2-0.4,3.2c-0.5-0.1-1-0.1-1.6-0.2c0.1-1.2,0.2-2.3,0.3-3.5c0.1-0.6,0-1-0.3-1.3c-0.2-0.3-0.6-0.5-1.1-0.5
		c-0.6,0-1,0.1-1.4,0.4c-0.4,0.3-0.5,0.8-0.6,1.4c-0.1,1.1-0.1,2.2-0.2,3.2c-0.5,0-1-0.1-1.6-0.1c0.1-2.1,0.2-4.3,0.3-6.4
		c0.5,0,1.1,0.1,1.6,0.1c0,0.3,0,0.5-0.1,0.8c0.3-0.3,0.6-0.5,1-0.6c0.4-0.1,0.9-0.2,1.4-0.1c0.5,0,1,0.2,1.4,0.4
		c0.4,0.2,0.7,0.5,0.9,0.9c0.3-0.3,0.7-0.5,1.2-0.7c0.5-0.1,1-0.2,1.6-0.1C1002.6,940.6,1003.2,941,1003.7,941.5z"/>
	<path class="st0" d="M1007,940.1c-0.2-0.2-0.2-0.4-0.2-0.7c0-0.3,0.2-0.4,0.4-0.6c0.2-0.1,0.5-0.2,0.8-0.1c0.3,0.1,0.5,0.2,0.7,0.4
		c0.2,0.2,0.2,0.4,0.2,0.7c-0.1,0.3-0.2,0.5-0.4,0.6c-0.2,0.1-0.5,0.2-0.8,0.1C1007.4,940.5,1007.2,940.4,1007,940.1z M1006.7,941.4
		c0.6,0.1,1.1,0.2,1.7,0.3c-0.4,2.1-0.9,4.2-1.3,6.3c-0.5-0.1-1-0.2-1.5-0.3C1005.9,945.6,1006.3,943.5,1006.7,941.4z"/>
	<path class="st0" d="M1017.4,944.1c-0.5,1.7-1.1,3.5-1.6,5.2c-0.7,2.2-2.1,2.9-4.4,2.3c-0.6-0.2-1.2-0.4-1.7-0.7
		c-0.5-0.3-0.9-0.6-1.2-1c0.3-0.3,0.6-0.6,0.9-0.9c0.2,0.3,0.5,0.6,0.9,0.8c0.4,0.2,0.8,0.4,1.3,0.5c0.7,0.2,1.3,0.2,1.7,0
		c0.4-0.2,0.7-0.6,0.9-1.3c0-0.1,0.1-0.2,0.1-0.3c-0.3,0.2-0.7,0.3-1.1,0.3c-0.4,0-0.8,0-1.3-0.1c-0.6-0.2-1.2-0.4-1.6-0.8
		c-0.4-0.4-0.8-0.8-1-1.4c-0.2-0.5-0.2-1.1-0.1-1.7c0.1-0.6,0.4-1.1,0.8-1.5c0.4-0.4,0.9-0.6,1.5-0.8c0.6-0.1,1.2-0.1,1.9,0.1
		c0.5,0.1,0.9,0.3,1.3,0.6c0.4,0.3,0.7,0.6,0.8,1c0.1-0.3,0.2-0.5,0.2-0.8C1016.4,943.8,1016.9,943.9,1017.4,944.1z M1014.1,947.6
		c0.5-0.2,0.8-0.6,0.9-1.1c0.2-0.5,0.1-1-0.2-1.4c-0.3-0.4-0.8-0.7-1.4-0.9c-0.6-0.2-1.2-0.1-1.6,0.1c-0.5,0.2-0.8,0.6-0.9,1.1
		c-0.1,0.5,0,1,0.3,1.4c0.3,0.4,0.7,0.7,1.3,0.9C1013.1,947.9,1013.6,947.8,1014.1,947.6z"/>
	<path class="st0" d="M1018.8,950.9c-0.4-0.4-0.7-1-0.9-1.5c-0.1-0.6-0.1-1.2,0.1-1.8c0.2-0.6,0.5-1.1,1-1.5c0.5-0.4,1-0.6,1.7-0.7
		c0.6-0.1,1.3,0,2,0.3c0.7,0.3,1.3,0.6,1.7,1.1c0.4,0.5,0.7,1,0.8,1.6c0.1,0.6,0,1.2-0.2,1.8c-0.2,0.6-0.6,1-1.1,1.4
		c-0.5,0.3-1,0.5-1.7,0.6c-0.6,0.1-1.3,0-1.9-0.3C1019.7,951.7,1019.2,951.4,1018.8,950.9z M1022.4,950.7c0.5-0.2,0.9-0.6,1.1-1.1
		c0.2-0.6,0.2-1.1,0-1.6c-0.2-0.5-0.7-0.8-1.2-1.1c-0.6-0.2-1.1-0.2-1.6,0c-0.5,0.2-0.8,0.6-1,1.2c-0.2,0.6-0.2,1.1,0.1,1.6
		c0.2,0.5,0.6,0.8,1.2,1C1021.4,950.9,1021.9,950.9,1022.4,950.7z"/>
</g>
<g>
	<g>
		<linearGradient id="SVGID_1_" gradientUnits="userSpaceOnUse" x1="968.7031" y1="956.2402" x2="968.7031" y2="973.04">
			<stop  offset="0" style="stop-color:#FFBE5C"/>
			<stop  offset="1" style="stop-color:#FE9A2E"/>
		</linearGradient>
		<path class="st1" d="M973,957c1.2,0.5,2,1.2,2.7,2.2s0.9,2.1,0.9,3.4s-0.3,2.4-0.9,3.4c-0.6,1-1.5,1.7-2.7,2.2
			c-1.2,0.5-2.5,0.8-4.1,0.8h-2.4v2.9c0,0.7-0.5,1.2-1.2,1.2H962c-0.7,0-1.2-0.5-1.2-1.2v-14.4c0-0.7,0.5-1.2,1.2-1.2h6.9
			C970.5,956.2,971.8,956.5,973,957z M970.3,964c0.4-0.3,0.6-0.8,0.6-1.5s-0.2-1.1-0.6-1.5c-0.4-0.3-1-0.5-1.7-0.5h-2.1v3.9h2.1
			C969.3,964.5,969.9,964.4,970.3,964z"/>
		
			<linearGradient id="SVGID_00000039840386142180177170000002733494732264700335_" gradientUnits="userSpaceOnUse" x1="987.8073" y1="956.2402" x2="987.8073" y2="973.04">
			<stop  offset="0" style="stop-color:#FFBE5C"/>
			<stop  offset="1" style="stop-color:#FE9A2E"/>
		</linearGradient>
		<path style="fill:url(#SVGID_00000039840386142180177170000002733494732264700335_);" d="M994.8,970v1.9c0,0.7-0.5,1.2-1.2,1.2
			H982c-0.7,0-1.2-0.5-1.2-1.2v-14.4c0-0.7,0.5-1.2,1.2-1.2h11.3c0.7,0,1.2,0.5,1.2,1.2v1.9c0,0.7-0.5,1.2-1.2,1.2h-6.9v2h5.9
			c0.7,0,1.2,0.5,1.2,1.2v1.7c0,0.7-0.5,1.2-1.2,1.2h-5.9v2.2h7.2C994.3,968.8,994.8,969.3,994.8,970z"/>
		
			<linearGradient id="SVGID_00000090291748349683129840000000170470977522775953_" gradientUnits="userSpaceOnUse" x1="1005.8552" y1="956.2402" x2="1005.8552" y2="973.04">
			<stop  offset="0" style="stop-color:#FFBE5C"/>
			<stop  offset="1" style="stop-color:#FE9A2E"/>
		</linearGradient>
		<path style="fill:url(#SVGID_00000090291748349683129840000000170470977522775953_);" d="M1003,960.6h-3.7c-0.7,0-1.2-0.5-1.2-1.2
			v-2c0-0.7,0.5-1.2,1.2-1.2h13.1c0.7,0,1.2,0.5,1.2,1.2v2c0,0.7-0.5,1.2-1.2,1.2h-3.7v11.2c0,0.7-0.5,1.2-1.2,1.2h-3.3
			c-0.7,0-1.2-0.5-1.2-1.2V960.6z"/>
	</g>
</g>
<g>
	<path class="st4" d="M10.9,5.4c0.6,0.3,1.1,0.9,1.3,1.8c0.3,1.2,0.7,2.4,1,3.5c-0.5,0.1-1,0.3-1.5,0.4c-0.3-1.1-0.7-2.2-1-3.3
		c-0.2-0.5-0.4-0.9-0.8-1.1C9.6,6.5,9.2,6.5,8.7,6.7C8.1,6.8,7.8,7.1,7.5,7.6C7.3,8,7.3,8.5,7.5,9.1c0.3,1,0.7,2.1,1,3.1
		c-0.5,0.2-1,0.3-1.5,0.5c-0.4-1.1-0.8-2.2-1.2-3.3C5.7,8.9,5.4,8.5,5.1,8.3c-0.4-0.2-0.8-0.2-1.3,0C3.2,8.6,2.9,8.9,2.7,9.3
		c-0.2,0.4-0.2,0.9,0.1,1.5c0.4,1,0.8,2,1.2,3c-0.5,0.2-1,0.4-1.5,0.6c-0.8-2-1.6-3.9-2.5-5.9c0.5-0.2,1-0.4,1.5-0.6
		c0.1,0.3,0.2,0.5,0.3,0.8C2,8.3,2.2,8,2.5,7.7C2.8,7.4,3.2,7.2,3.7,7c0.5-0.2,1-0.3,1.5-0.2c0.5,0,0.9,0.2,1.2,0.4
		c0.2-0.4,0.5-0.8,0.8-1.1c0.4-0.3,0.9-0.6,1.4-0.7C9.5,5.1,10.2,5.1,10.9,5.4z"/>
	<path class="st4" d="M20.9,6.2c-1.8,0.3-3.6,0.7-5.3,1.1c0.2,0.4,0.5,0.7,1,0.9c0.5,0.2,1,0.2,1.5,0.1c0.7-0.2,1.3-0.5,1.7-1.1
		c0.3,0.2,0.7,0.5,1,0.7c-0.2,0.4-0.6,0.7-1,1c-0.4,0.3-0.9,0.5-1.5,0.6c-0.7,0.2-1.4,0.2-2,0c-0.6-0.1-1.1-0.4-1.6-0.8
		c-0.4-0.4-0.7-0.9-0.9-1.5c-0.2-0.6-0.1-1.2,0-1.8c0.2-0.6,0.5-1,1-1.5c0.5-0.4,1.1-0.7,1.8-0.8C17.4,3,18,3,18.6,3.2
		c0.6,0.2,1.1,0.5,1.5,0.9c0.4,0.4,0.6,1,0.8,1.6C20.9,5.8,20.9,6,20.9,6.2z M15.7,5.1c-0.3,0.4-0.4,0.8-0.4,1.3
		c1.3-0.3,2.6-0.6,3.9-0.9c-0.2-0.4-0.4-0.8-0.9-1c-0.4-0.2-0.9-0.3-1.4-0.1C16.4,4.5,16,4.7,15.7,5.1z"/>
	<path class="st4" d="M28.7,1.4c0.2,2.1,0.4,4.3,0.6,6.4c-0.5,0-1,0.1-1.5,0.2c0-0.3-0.1-0.5-0.1-0.8c-0.2,0.3-0.5,0.6-0.9,0.8
		c-0.4,0.2-0.7,0.3-1.2,0.4c-0.9,0.1-1.6,0-2.2-0.4c-0.6-0.4-1-1-1.1-2c-0.2-1.2-0.4-2.4-0.6-3.6c0.6-0.1,1.1-0.2,1.7-0.3
		c0.2,1.1,0.3,2.3,0.5,3.4c0.1,0.6,0.3,1,0.6,1.2c0.3,0.2,0.7,0.3,1.2,0.3c0.6-0.1,1-0.3,1.3-0.7c0.3-0.4,0.4-0.9,0.3-1.5
		c-0.1-1.1-0.2-2.1-0.4-3.2C27.6,1.5,28.2,1.4,28.7,1.4z"/>
	<path class="st4" d="M39.8,1.5c0.5,0.5,0.8,1.1,0.8,2.1c0,1.3-0.1,2.5-0.1,3.8c-0.5,0-1,0-1.5,0c0-0.3,0-0.5,0-0.8
		c-0.2,0.3-0.5,0.5-0.8,0.6c-0.4,0.1-0.8,0.2-1.3,0.2c-0.5,0-0.9-0.1-1.3-0.2c-0.4-0.2-0.7-0.4-0.9-0.7c-0.2-0.3-0.3-0.6-0.4-1
		c0-0.6,0.2-1,0.6-1.4c0.5-0.4,1.2-0.6,2.2-0.6c0.6,0,1.2,0,1.8,0c0,0,0-0.1,0-0.1c0-0.4-0.1-0.8-0.4-1c-0.3-0.2-0.7-0.4-1.3-0.4
		c-0.4,0-0.8,0.1-1.2,0.2c-0.4,0.1-0.7,0.3-1,0.5c-0.2-0.4-0.5-0.7-0.7-1.1c0.4-0.3,0.8-0.5,1.3-0.6c0.5-0.1,1.1-0.2,1.7-0.2
		C38.4,0.8,39.2,1.1,39.8,1.5z M38.3,6.1c0.3-0.2,0.5-0.4,0.7-0.7c0-0.2,0-0.5,0-0.7c-0.6,0-1.1,0-1.7,0c-0.9,0-1.4,0.3-1.4,0.9
		c0,0.3,0.1,0.5,0.4,0.6c0.2,0.2,0.6,0.2,1,0.2C37.6,6.3,38,6.2,38.3,6.1z"/>
	<path class="st4" d="M53.8,2.8c0.4,0.5,0.6,1.3,0.4,2.2c-0.2,1.2-0.4,2.4-0.6,3.6c-0.5-0.1-1-0.2-1.6-0.2c0.2-1.1,0.3-2.3,0.5-3.4
		c0.1-0.6,0-1-0.2-1.3c-0.2-0.3-0.6-0.5-1.1-0.6c-0.6-0.1-1,0-1.4,0.3c-0.4,0.3-0.6,0.7-0.7,1.4c-0.1,1.1-0.2,2.2-0.4,3.2
		c-0.5-0.1-1-0.1-1.6-0.2c0.1-1.2,0.2-2.3,0.3-3.5c0.1-0.6,0-1-0.3-1.3c-0.2-0.3-0.6-0.5-1.1-0.5c-0.6,0-1,0.1-1.4,0.4
		c-0.4,0.3-0.5,0.8-0.6,1.4c-0.1,1.1-0.1,2.2-0.2,3.2c-0.5,0-1-0.1-1.6-0.1c0.1-2.1,0.2-4.3,0.3-6.4c0.5,0,1.1,0.1,1.6,0.1
		c0,0.3,0,0.5-0.1,0.8c0.3-0.3,0.6-0.5,1-0.6c0.4-0.1,0.9-0.2,1.4-0.1c0.5,0,1,0.2,1.4,0.4c0.4,0.2,0.7,0.5,0.9,0.9
		c0.3-0.3,0.7-0.5,1.2-0.7c0.5-0.1,1-0.2,1.6-0.1C52.7,1.9,53.4,2.2,53.8,2.8z"/>
	<path class="st4" d="M57.2,1.4C57,1.2,56.9,1,57,0.7c0-0.3,0.2-0.4,0.4-0.6C57.6,0,57.9,0,58.2,0c0.3,0.1,0.5,0.2,0.7,0.4
		c0.2,0.2,0.2,0.4,0.2,0.7c-0.1,0.3-0.2,0.5-0.4,0.6c-0.2,0.1-0.5,0.2-0.8,0.1C57.6,1.7,57.3,1.6,57.2,1.4z M56.8,2.7
		c0.6,0.1,1.1,0.2,1.7,0.3c-0.4,2.1-0.9,4.2-1.3,6.3c-0.5-0.1-1-0.2-1.5-0.3C56,6.9,56.4,4.8,56.8,2.7z"/>
	<path class="st4" d="M67.6,5.3C67,7.1,66.5,8.8,66,10.5c-0.7,2.2-2.1,2.9-4.4,2.3c-0.6-0.2-1.2-0.4-1.7-0.7c-0.5-0.3-0.9-0.6-1.2-1
		c0.3-0.3,0.6-0.6,0.9-0.9c0.2,0.3,0.5,0.6,0.9,0.8c0.4,0.2,0.8,0.4,1.3,0.5c0.7,0.2,1.3,0.2,1.7,0c0.4-0.2,0.7-0.6,0.9-1.3
		c0-0.1,0.1-0.2,0.1-0.3c-0.3,0.2-0.7,0.3-1.1,0.3c-0.4,0-0.8,0-1.3-0.1c-0.6-0.2-1.2-0.4-1.6-0.8c-0.4-0.4-0.8-0.8-1-1.4
		c-0.2-0.5-0.2-1.1-0.1-1.7c0.1-0.6,0.4-1.1,0.8-1.5c0.4-0.4,0.9-0.6,1.5-0.8C62.3,3.9,63,4,63.6,4.1c0.5,0.1,0.9,0.3,1.3,0.6
		c0.4,0.3,0.7,0.6,0.8,1C65.9,5.4,66,5.1,66,4.9C66.6,5,67.1,5.2,67.6,5.3z M64.2,8.9c0.5-0.2,0.8-0.6,0.9-1.1
		c0.2-0.5,0.1-1-0.2-1.4c-0.3-0.4-0.8-0.7-1.4-0.9c-0.6-0.2-1.2-0.1-1.6,0.1c-0.5,0.2-0.8,0.6-0.9,1.1c-0.1,0.5,0,1,0.3,1.4
		C61.6,8.5,62,8.8,62.6,9C63.2,9.1,63.7,9.1,64.2,8.9z"/>
	<path class="st4" d="M68.9,12.2c-0.4-0.4-0.7-1-0.9-1.5c-0.1-0.6-0.1-1.2,0.1-1.8c0.2-0.6,0.5-1.1,1-1.5c0.5-0.4,1-0.6,1.7-0.7
		c0.6-0.1,1.3,0,2,0.3c0.7,0.3,1.3,0.6,1.7,1.1c0.4,0.5,0.7,1,0.8,1.6c0.1,0.6,0,1.2-0.2,1.8c-0.2,0.6-0.6,1-1.1,1.4
		c-0.5,0.3-1,0.5-1.7,0.6c-0.6,0.1-1.3,0-1.9-0.3C69.9,12.9,69.4,12.6,68.9,12.2z M72.6,12c0.5-0.2,0.9-0.6,1.1-1.1
		c0.2-0.6,0.2-1.1,0-1.6c-0.2-0.5-0.7-0.8-1.2-1.1c-0.6-0.2-1.1-0.2-1.6,0c-0.5,0.2-0.8,0.6-1,1.2c-0.2,0.6-0.2,1.1,0.1,1.6
		c0.2,0.5,0.6,0.8,1.2,1C71.5,12.2,72.1,12.2,72.6,12z"/>
</g>
<g>
	<g>
		<path class="st4" d="M23.1,18.3c1.2,0.5,2,1.2,2.7,2.2s0.9,2.1,0.9,3.4s-0.3,2.4-0.9,3.4c-0.6,1-1.5,1.7-2.7,2.2
			c-1.2,0.5-2.5,0.8-4.1,0.8h-2.4v2.9c0,0.7-0.5,1.2-1.2,1.2h-3.3c-0.7,0-1.2-0.5-1.2-1.2V18.7c0-0.7,0.5-1.2,1.2-1.2h6.9
			C20.6,17.5,22,17.7,23.1,18.3z M20.4,25.3c0.4-0.3,0.6-0.8,0.6-1.5s-0.2-1.1-0.6-1.5c-0.4-0.3-1-0.5-1.7-0.5h-2.1v3.9h2.1
			C19.5,25.8,20.1,25.6,20.4,25.3z"/>
		<path class="st4" d="M44.9,31.2v1.9c0,0.7-0.5,1.2-1.2,1.2H32.2c-0.7,0-1.2-0.5-1.2-1.2V18.7c0-0.7,0.5-1.2,1.2-1.2h11.3
			c0.7,0,1.2,0.5,1.2,1.2v1.9c0,0.7-0.5,1.2-1.2,1.2h-6.9v2h5.9c0.7,0,1.2,0.5,1.2,1.2v1.7c0,0.7-0.5,1.2-1.2,1.2h-5.9V30h7.2
			C44.4,30,44.9,30.6,44.9,31.2z"/>
		<path class="st4" d="M53.2,21.9h-3.7c-0.7,0-1.2-0.5-1.2-1.2v-2c0-0.7,0.5-1.2,1.2-1.2h13.1c0.7,0,1.2,0.5,1.2,1.2v2
			c0,0.7-0.5,1.2-1.2,1.2h-3.7v11.2c0,0.7-0.5,1.2-1.2,1.2h-3.3c-0.7,0-1.2-0.5-1.2-1.2V21.9z"/>
	</g>
</g>
</svg>
